<svg height="1024" width="1024" xmlns="http://www.w3.org/2000/svg" xmlns:xlink="http://www.w3.org/1999/xlink"
     version="1.1" x="0px" y="0px" viewBox="0 0 100 100">
    <path d="M74.282,12.342l-0.217-0.265L44.966,5.334L25.846,15.643l-10.796,7.752l-9.404,20.05l2.659,28.089l24.283,23.132h34.915 l24.202-23.228l2.656-34.458L74.282,12.342z M58.092,53.735L29.996,42.901L54.05,24.588L58.092,53.735z M28.607,44.507 l29.468,11.315l-8.711,28.039L20.017,72.464L28.607,44.507z M47.531,85.295l-14.214,7.089L21.455,75.169L47.531,85.295z M51.572,83.492l8.253-26.562l19.422,15.737L51.572,83.492z M78.563,75.083L66.764,92.384l-14.296-7.094L78.563,75.083z M56.071,24.606l25.902,14.416L60.08,53.514L56.071,24.606z M56.911,22.784l16.078-8.411l8.933,22.331L56.911,22.784z M28.848,41.261L27.4,17.783l25.079,5.488L28.848,41.261z M26.903,42.211L8.657,42.582l16.837-23.216L26.903,42.211z M26.603,44.218 l-7.952,25.884L8.148,44.593L26.603,44.218z M18.222,73.963l8.492,12.348l-14.22-13.545L18.222,73.963z M50.001,86.297l12.834,6.369 H37.232L50.001,86.297z M81.811,73.869l5.718-1.196l-14.19,13.619L81.811,73.869z M80.365,70.999L60.997,55.305l21.741-14.392 L80.365,70.999z M84.523,37.823l-7.658-19.145L91.479,36.61L84.523,37.823z M45.25,7.453l25.401,5.885L54.82,21.62l-0.1-0.055 l-0.153,0.116L29.17,16.123L45.25,7.453z M16.639,24.716l5.233-3.763L12.055,34.49L16.639,24.716z M8.294,50.201l8.851,21.494 l-6.954-1.454L8.294,50.201z M89.797,70.157l-7.483,1.564L84.833,39.8l7.405-1.291L89.797,70.157z"></path>
</svg>